<svg width="140" height="26" viewBox="0 0 140 26" fill="none" xmlns="http://www.w3.org/2000/svg">
<path d="M11.3069 16.2708L12.3709 17.8948C11.2882 19.2948 9.67357 19.9948 7.52691 19.9948C5.51091 19.9948 3.87757 19.3975 2.62691 18.2028C1.39491 17.0082 0.778905 15.4122 0.778905 13.4148C0.778905 11.5668 1.38557 10.0082 2.59891 8.73884C3.81224 7.46951 5.33357 6.83484 7.16291 6.83484C9.36557 6.83484 11.0176 7.38551 12.1189 8.48684L11.0829 10.2508C10.1122 9.37351 8.90824 8.93484 7.47091 8.93484C6.29491 8.93484 5.27757 9.36418 4.41891 10.2228C3.57891 11.0628 3.15891 12.1268 3.15891 13.4148C3.15891 14.7775 3.58824 15.8602 4.44691 16.6628C5.32424 17.4842 6.40691 17.8948 7.69491 17.8948C9.15091 17.8948 10.3549 17.3535 11.3069 16.2708ZM17.5308 19.7148H15.2908V0.114842H17.5308V8.57084C18.6508 7.45084 20.0228 6.89084 21.6468 6.89084C25.1374 6.89084 26.8828 8.75751 26.8828 12.4908V19.7148H24.6428V12.7988C24.6428 10.2602 23.4668 8.99084 21.1148 8.99084C20.4614 8.99084 19.7988 9.14018 19.1268 9.43884C18.4734 9.73751 17.9414 10.1202 17.5308 10.5868V19.7148ZM31.33 9.77484L30.742 7.98284C31.9926 7.21751 33.3926 6.83484 34.942 6.83484C36.6406 6.83484 37.8726 7.25484 38.638 8.09484C39.4033 8.93484 39.786 10.2322 39.786 11.9868V19.7148H37.658V18.0908C36.6686 19.3042 35.3246 19.9108 33.626 19.9108C32.4686 19.9108 31.5353 19.5655 30.826 18.8748C30.1166 18.1655 29.762 17.2135 29.762 16.0188C29.762 14.7868 30.2006 13.8162 31.078 13.1068C31.9553 12.3788 33.1033 12.0148 34.522 12.0148C35.8473 12.0148 36.8926 12.2855 37.658 12.8268C37.658 11.4082 37.462 10.3908 37.07 9.77484C36.678 9.15884 35.922 8.85084 34.802 8.85084C33.6633 8.85084 32.506 9.15884 31.33 9.77484ZM34.41 17.8948C35.6606 17.8948 36.7433 17.3535 37.658 16.2708V14.6748C36.874 14.1148 35.9313 13.8348 34.83 13.8348C34.0646 13.8348 33.4206 14.0215 32.898 14.3948C32.394 14.7495 32.142 15.2535 32.142 15.9068C32.142 16.5228 32.338 17.0082 32.73 17.3628C33.1406 17.7175 33.7006 17.8948 34.41 17.8948ZM45.7769 19.7148H43.5369V7.11484H45.7769V8.65484C46.2435 8.13218 46.8502 7.71218 47.5969 7.39484C48.3622 7.05884 49.1275 6.89084 49.8929 6.89084C53.3835 6.89084 55.1289 8.73884 55.1289 12.4348V19.7148H52.8889V12.8548C52.8889 10.2788 51.7035 8.99084 49.3329 8.99084C47.9142 8.99084 46.7289 9.53218 45.7769 10.6148V19.7148ZM57.1681 21.5348C57.1681 20.5642 57.5227 19.7522 58.2321 19.0988C58.9414 18.4455 59.9307 17.9788 61.2001 17.6988C60.9947 17.4375 60.8921 17.0922 60.8921 16.6628C60.8921 16.2335 61.0041 15.8788 61.2281 15.5988C60.3321 15.2442 59.6321 14.7028 59.1281 13.9748C58.6427 13.2468 58.4001 12.4068 58.4001 11.4548C58.4001 10.1482 58.8667 9.05618 59.8001 8.17884C60.7521 7.28284 62.0027 6.83484 63.5521 6.83484C64.7467 6.83484 65.8107 7.14284 66.7441 7.75884L70.4401 6.86284L70.4961 8.68284L68.1161 9.27084C68.5081 9.92418 68.7041 10.6522 68.7041 11.4548C68.7041 12.7428 68.2281 13.8255 67.2761 14.7028C66.3427 15.5615 65.1014 15.9908 63.5521 15.9908C63.1227 15.9908 62.8427 15.9815 62.7121 15.9628C62.6187 16.1868 62.5721 16.4202 62.5721 16.6628C62.5721 16.9988 62.6561 17.2788 62.8241 17.5028C62.8614 17.5028 62.9734 17.5028 63.1601 17.5028C63.3654 17.4842 63.5054 17.4748 63.5801 17.4748C65.5401 17.4748 67.0987 17.8295 68.2561 18.5388C69.4134 19.2295 69.9921 20.2282 69.9921 21.5348C69.9921 22.8042 69.4134 23.7842 68.2561 24.4748C67.0987 25.1842 65.5401 25.5388 63.5801 25.5388C61.6014 25.5388 60.0334 25.1935 58.8761 24.5028C57.7374 23.8308 57.1681 22.8415 57.1681 21.5348ZM67.8921 21.5348C67.8921 20.8442 67.5094 20.2935 66.7441 19.8828C65.9787 19.4908 64.9241 19.2948 63.5801 19.2948C62.2361 19.2948 61.1814 19.4908 60.4161 19.8828C59.6507 20.2935 59.2681 20.8442 59.2681 21.5348C59.2681 22.2255 59.6507 22.7575 60.4161 23.1308C61.1814 23.5228 62.2361 23.7188 63.5801 23.7188C64.9241 23.7188 65.9787 23.5322 66.7441 23.1588C67.5094 22.7855 67.8921 22.2442 67.8921 21.5348ZM60.5001 11.4548C60.5001 12.2388 60.7801 12.8922 61.3401 13.4148C61.9187 13.9188 62.6561 14.1708 63.5521 14.1708C64.4481 14.1708 65.1761 13.9188 65.7361 13.4148C66.3147 12.9108 66.6041 12.2575 66.6041 11.4548C66.6041 10.6522 66.3241 9.98951 65.7641 9.46684C65.1854 8.92551 64.4481 8.65484 63.5521 8.65484C62.6561 8.65484 61.9187 8.92551 61.3401 9.46684C60.7801 9.98951 60.5001 10.6522 60.5001 11.4548ZM82.68 16.5788L83.38 18.3428C82.1667 19.4442 80.5893 19.9948 78.648 19.9948C76.5947 19.9948 74.9613 19.3975 73.748 18.2028C72.516 17.0082 71.9 15.4122 71.9 13.4148C71.9 11.5295 72.4787 9.96151 73.636 8.71084C74.7747 7.46018 76.3613 6.83484 78.396 6.83484C80.076 6.83484 81.4667 7.37618 82.568 8.45884C83.688 9.52284 84.248 10.9042 84.248 12.6028C84.248 13.1442 84.2013 13.6482 84.108 14.1148H74.42C74.5133 15.2908 74.952 16.2148 75.736 16.8868C76.5387 17.5588 77.5653 17.8948 78.816 17.8948C80.4587 17.8948 81.7467 17.4562 82.68 16.5788ZM78.284 8.93484C77.1827 8.93484 76.268 9.24284 75.54 9.85884C74.8307 10.4748 74.4107 11.2868 74.28 12.2948H81.924C81.868 11.2495 81.5133 10.4282 80.86 9.83084C80.2253 9.23351 79.3667 8.93484 78.284 8.93484Z" fill="#18258F"/>
<path d="M89.5269 19.7148H87.2869V0.114842H89.5269V8.57084C90.6469 7.45084 92.0189 6.89084 93.6429 6.89084C97.1335 6.89084 98.8789 8.75751 98.8789 12.4908V19.7148H96.6389V12.7988C96.6389 10.2602 95.4629 8.99084 93.1109 8.99084C92.4575 8.99084 91.7949 9.14018 91.1229 9.43884C90.4695 9.73751 89.9375 10.1202 89.5269 10.5868V19.7148ZM112.594 16.5788L113.294 18.3428C112.081 19.4442 110.503 19.9948 108.562 19.9948C106.509 19.9948 104.875 19.3975 103.662 18.2028C102.43 17.0082 101.814 15.4122 101.814 13.4148C101.814 11.5295 102.393 9.96151 103.55 8.71084C104.689 7.46018 106.275 6.83484 108.31 6.83484C109.99 6.83484 111.381 7.37618 112.482 8.45884C113.602 9.52284 114.162 10.9042 114.162 12.6028C114.162 13.1442 114.115 13.6482 114.022 14.1148H104.334C104.427 15.2908 104.866 16.2148 105.65 16.8868C106.453 17.5588 107.479 17.8948 108.73 17.8948C110.373 17.8948 111.661 17.4562 112.594 16.5788ZM108.198 8.93484C107.097 8.93484 106.182 9.24284 105.454 9.85884C104.745 10.4748 104.325 11.2868 104.194 12.2948H111.838C111.782 11.2495 111.427 10.4282 110.774 9.83084C110.139 9.23351 109.281 8.93484 108.198 8.93484ZM119.441 19.7148H117.201V7.11484H119.441V8.59884C120.188 7.46018 121.242 6.89084 122.605 6.89084C123.482 6.89084 124.136 7.04951 124.565 7.36684L123.781 9.46684C123.24 9.14951 122.67 8.99084 122.073 8.99084C120.934 8.99084 120.057 9.58818 119.441 10.7828V19.7148ZM127.725 18.1468C126.493 16.8775 125.877 15.3002 125.877 13.4148C125.877 11.5108 126.493 9.94284 127.725 8.71084C128.975 7.46018 130.599 6.83484 132.597 6.83484C134.594 6.83484 136.209 7.46018 137.441 8.71084C138.691 9.94284 139.317 11.5108 139.317 13.4148C139.317 15.3188 138.691 16.8962 137.441 18.1468C136.209 19.3788 134.594 19.9948 132.597 19.9948C130.618 19.9948 128.994 19.3788 127.725 18.1468ZM129.489 10.1948C128.667 11.0162 128.257 12.0895 128.257 13.4148C128.257 14.7402 128.658 15.8135 129.461 16.6348C130.282 17.4748 131.327 17.8948 132.597 17.8948C133.866 17.8948 134.902 17.4842 135.705 16.6628C136.526 15.8228 136.937 14.7402 136.937 13.4148C136.937 12.1268 136.526 11.0535 135.705 10.1948C134.902 9.35484 133.866 8.93484 132.597 8.93484C131.327 8.93484 130.291 9.35484 129.489 10.1948Z" fill="#379AFA"/>
</svg>
