<svg xmlns="http://www.w3.org/2000/svg" width="225" height="45" viewBox="0 0 225 45">
    <g fill="none" fill-rule="evenodd">
        <path fill="#F3F5FA" fill-opacity=".01" d="M.25.33h224v44H.25z"/>
        <path fill="#835AA2" fill-rule="nonzero" d="M110.9 14.14h3.6v12.78h10.8v3.42h-14.4v-16.2zm17.1 0h16.2v3.42h-6.3v12.78h-3.6V17.56H128v-3.42zm38.34 1.62c-1.08-.99-2.7-1.62-4.59-1.62h-9.45v16.2h3.6v-5.58h5.94l3.15 5.58h4.5l-3.87-6.48c1.53-.9 2.52-2.43 2.52-4.32-.18-1.44-.72-2.79-1.8-3.78zm-10.44 5.58v-3.78h5.76c1.08 0 1.71.27 2.07.63.36.36.54.9.54 1.35 0 .45-.18.9-.54 1.17-.36.27-.99.54-2.07.54h-5.76v.09zm18.9 9h3.87l5.22-11.7 5.22 11.7h3.87l-7.2-16.2h-3.6l-7.38 16.2zm-90-8.73v-7.38h3.6v7.38c0 1.89.54 3.15 1.44 3.96.9.9 2.16 1.35 3.96 1.35 1.89 0 3.06-.54 3.96-1.35.9-.9 1.44-2.16 1.44-4.05v-7.38h3.6v7.38c0 2.61-.81 4.95-2.52 6.66-1.71 1.62-3.87 2.43-6.48 2.43-2.61 0-4.77-.72-6.48-2.43-1.71-1.71-2.52-4.14-2.52-6.57zm-36-17.28c-15.84 0-18 2.16-18 18s2.16 18 18 18 18-2.16 18-18-2.16-18-18-18zM47 15.13h3.6v7.2c0 .72-.18 1.17-.45 1.44-.27.36-.72.54-1.35.54-.63 0-.99-.18-1.35-.54-.27-.36-.45-.81-.45-1.44v-7.2zm10.8 7.38c0 2.61-.81 4.95-2.52 6.66-1.71 1.62-3.87 2.43-6.48 2.43-2.61 0-4.77-.72-6.48-2.43-1.71-1.71-2.52-4.05-2.52-6.66v-7.38h3.6v7.38c0 1.89.54 3.15 1.44 3.96.9.9 2.16 1.35 3.96 1.35 1.89 0 3.06-.54 3.96-1.35.9-.9 1.44-2.16 1.44-4.05v-7.38h3.6v7.47z"/>
    </g>
</svg>
