<svg xmlns="http://www.w3.org/2000/svg" width="225" height="45" viewBox="0 0 225 45">
    <g fill="none" fill-rule="evenodd">
        <path fill="#F3F5FA" fill-opacity=".01" d="M.893.063h224v44h-224z"/>
        <path fill="#5DAFF1" fill-rule="nonzero" d="M51.033 29.368h-2.64v-21h2.64l7.2 17.13 7.2-17.13h2.64v21h-2.64v-15.33l-6.15 15.33h-2.1l-6.15-15.42v15.42zm27.78.36c-2.19 0-3.96-.69-5.25-2.1-1.29-1.38-1.95-3.12-1.95-5.19 0-2.07.66-3.81 1.95-5.19 1.29-1.38 3.06-2.07 5.25-2.07s3.93.69 5.25 2.07c1.29 1.41 1.95 3.12 1.95 5.19 0 2.07-.66 3.81-1.95 5.19-1.32 1.41-3.06 2.1-5.25 2.1zm-3.36-3.75c.81.93 1.95 1.41 3.36 1.41s2.55-.48 3.36-1.41c.81-.93 1.23-2.1 1.23-3.54 0-2.85-1.74-4.92-4.59-4.92-2.85 0-4.62 2.07-4.62 4.95 0 1.41.42 2.58 1.26 3.51zm16.56 3.39h-2.61v-13.83h2.61v3.15c.51-2.19 2.22-3.36 4.05-3.36.54 0 .96.03 1.26.12v2.4c-.3-.06-.72-.09-1.29-.09-2.61 0-4.02 2.31-4.02 5.55v6.06zm15.9-14.19c1.98 0 3.6.66 4.83 2.01 1.23 1.35 1.86 3.12 1.86 5.28 0 2.13-.63 3.87-1.92 5.22-1.29 1.35-2.91 2.04-4.92 2.04-2.13 0-4.05-1.08-4.92-2.79v8.82h-2.61v-20.22h2.61v2.43c.87-1.71 2.82-2.79 5.07-2.79zm-.51 12.21c2.67 0 4.59-2.04 4.59-4.92 0-1.44-.42-2.64-1.29-3.57-.87-.93-1.95-1.38-3.3-1.38-2.76 0-4.68 2.04-4.68 4.95 0 2.88 1.92 4.92 4.68 4.92zm18.03-12.21c3.45 0 5.16 1.89 5.16 5.67v8.52h-2.61v-7.38c0-3.12-1.05-4.56-3.48-4.56-2.52 0-3.9 1.74-3.9 4.62v7.32h-2.61v-21h2.61v9.72c.75-1.8 2.46-2.91 4.83-2.91zm21.78 6.48c0 .39-.03.9-.09 1.56h-10.71c.03 2.64 1.71 4.23 4.35 4.23 1.83 0 3.06-.69 3.66-2.04h2.61c-.24 1.29-.93 2.31-2.1 3.12s-2.55 1.2-4.17 1.2c-4.23 0-6.93-2.82-6.93-7.29 0-2.19.63-3.96 1.86-5.28 1.23-1.32 2.88-1.98 4.95-1.98 1.95 0 3.54.6 4.77 1.8 1.2 1.2 1.8 2.76 1.8 4.68zm-10.8-.45h8.22c0-2.43-1.5-3.93-4.02-3.93-2.49 0-4.08 1.56-4.2 3.93zm19.26 8.52c-3.21 0-5.25-1.98-5.25-5.67v-8.52h2.61v7.89c0 2.7 1.11 4.05 3.36 4.05 2.64 0 3.93-1.95 3.93-4.38v-7.56h2.61v13.83h-2.61v-2.52c-.75 1.77-2.46 2.88-4.65 2.88zm16.41 0c-1.74 0-3.12-.45-4.17-1.32-1.05-.87-1.59-1.92-1.59-3.18h2.58c0 1.41 1.29 2.4 3.3 2.4 1.56 0 2.55-.78 2.55-2.01 0-.99-.45-1.59-1.35-1.8l-3.69-.96c-1.98-.54-2.97-1.77-2.97-3.72 0-2.28 2.1-3.96 5.19-3.96 3.36 0 5.31 1.68 5.31 4.17h-2.58c0-1.32-1.05-2.16-2.85-2.16-1.44 0-2.49.72-2.49 1.83 0 .93.51 1.53 1.53 1.77l3.45.96c1.95.51 3.09 1.95 3.09 3.63 0 2.64-1.98 4.35-5.31 4.35z"/>
    </g>
</svg>
