<svg xmlns="http://www.w3.org/2000/svg" width="225" height="45" viewBox="0 0 225 45">
    <g fill="none" fill-rule="evenodd">
        <path fill="#F3F5FA" fill-opacity=".01" d="M.554.884h224v44h-224z"/>
        <g fill="#3580F8">
            <path d="M102.13 26.824h-4.084c-.545 0-.914.028-1.107.081-.51.144-.765.52-.765 1.13 0 .771.623 1.156 1.872 1.156h4.084v-2.367zm-4.322-2.796h4.322c0-.914-.185-1.533-.553-1.856-.37-.323-1.081-.484-2.135-.484h-5.956v-2.797h5.956c1.634 0 2.784.108 3.452.323 1.195.394 2.02 1.309 2.477 2.743.193.61.29 1.497.29 2.662v7.37H98.23c-1.142 0-1.845-.01-2.108-.027-.844-.09-1.502-.296-1.977-.619-1.054-.717-1.58-1.793-1.58-3.227 0-.897.206-1.685.618-2.367.413-.681.962-1.147 1.647-1.399.597-.215 1.59-.322 2.978-.322zM79.172 29.191v-10.3h3.604v10.3h3.873v-10.3h3.604v13.097H77.02c-2.152 0-3.596-.403-4.33-1.21-.79-.86-1.184-2.044-1.184-3.55v-8.337h3.604v7.772c0 1.004.162 1.677.484 2.018.323.34.879.51 1.668.51h1.91zM109.77 18.891h6.874c.923 0 1.607.045 2.052.135a3.638 3.638 0 0 1 1.785.914c.906.843 1.359 2.17 1.359 3.98v8.068h-3.57v-8.471c0-1.22-.613-1.829-1.839-1.829h-3.09v10.3h-3.571V18.891zM136.22 18.891v2.797h-4.398c-1.375 0-2.37.296-2.983.888-.614.591-.921 1.542-.921 2.85 0 1.596.568 2.699 1.705 3.308.55.305 1.42.457 2.611.457h3.987v2.797h-5.031c-1.339 0-2.406-.134-3.204-.404-.797-.268-1.498-.734-2.103-1.398-1.154-1.255-1.732-2.85-1.732-4.787 0-2.33.687-4.07 2.062-5.217 1.026-.86 2.685-1.29 4.977-1.29h5.03zM141.855 13.755v4.782h3.66c1.96 0 3.34.39 4.141 1.169.802.78 1.203 2.01 1.203 3.692v8.076h-3.58v-7.358c0-1.151-.165-1.908-.494-2.271-.33-.363-1.012-.545-2.044-.545h-2.886v10.174h-3.58V13.755h3.58zM163.25 26.824h-4.085c-.545 0-.914.028-1.107.081-.51.144-.764.52-.764 1.13 0 .771.623 1.156 1.87 1.156h4.085v-2.367zm-4.323-2.796h4.322c0-.914-.185-1.533-.553-1.856-.37-.323-1.08-.484-2.135-.484h-5.955v-2.797h5.955c1.634 0 2.785.108 3.453.323 1.194.394 2.02 1.309 2.476 2.743.193.61.29 1.497.29 2.662v7.37h-7.43c-1.143 0-1.846-.01-2.109-.027-.843-.09-1.502-.296-1.976-.619-1.055-.717-1.582-1.793-1.582-3.227 0-.897.207-1.685.62-2.367.412-.681.962-1.147 1.647-1.399.596-.215 1.59-.322 2.977-.322zM170.376 31.474h3.338V18.537h-3.338v12.937zm0-14.265h3.338v-3.454h-3.338v3.454zM177.053 18.891h6.874c.923 0 1.607.045 2.051.135a3.637 3.637 0 0 1 1.785.914c.907.843 1.36 2.17 1.36 3.98v8.068h-3.571v-8.471c0-1.22-.613-1.829-1.838-1.829h-3.091v10.3h-3.57V18.891z"/>
            <g>
                <path d="M49.863 20.96l-14.31 8.422v4.628l14.31-8.421 14.309 8.421v-4.628zM39.808 15.923l10.17-5.876 10.168 5.876 3.797-1.545-13.966-8.07-13.966 8.07z"/>
                <path d="M60.131 16.71v12.95l-1.454.869 3.088 1.879 2.407-1.44v-15.96zM41.048 30.529l-1.466-.877V16.705l-4.028-1.697v15.96l2.406 1.44zM57.753 31.263l-7.776 4.37-7.776-4.37-3.213 1.836 10.99 6.177 10.989-6.177z"/>
            </g>
        </g>
    </g>
</svg>
