<svg xmlns="http://www.w3.org/2000/svg" width="225" height="44" viewBox="0 0 225 44">
    <g fill="none" fill-rule="evenodd">
        <path fill="#F3F5FA" fill-opacity=".01" d="M.773 0h224v44h-224z"/>
        <path fill="#291A41" fill-rule="nonzero" stroke="#291A41" stroke-width=".35" d="M180.784 13.927c-.214 0-.322.11-.536.218a.837.837 0 0 0-.214.543v15.987c0 .219.108.328.214.545.108.109.322.218.536.218.214 0 .322-.11.536-.218a.837.837 0 0 0 .214-.545v-7.287h4.073l3.75 7.722c.11.219.323.435.644.435.108 0 .215 0 .322-.109.214-.109.322-.218.322-.435.107-.218 0-.326 0-.542l-3.43-7.07c1.18-.219 2.25-.762 3-1.632.86-.87 1.18-1.849 1.18-3.045 0-1.305-.536-2.393-1.5-3.37-.965-.87-2.144-1.415-3.538-1.415h-5.573zm8.039 6.96c-.644.653-1.5.98-2.466.98h-4.823V15.34h4.717c.964 0 1.822.326 2.572.978.75.653 1.072 1.414 1.072 2.284 0 .87-.429 1.632-1.072 2.284zm-15.328 10.55c.216 0 .322-.11.536-.219a.837.837 0 0 0 .216-.543c0-.218-.108-.327-.216-.544a.813.813 0 0 0-.536-.218H164.6v-6.525h6.645c.215 0 .322-.109.536-.218a.837.837 0 0 0 .214-.543c0-.218-.106-.327-.214-.544a.813.813 0 0 0-.536-.218H164.6v-6.522h8.895c.216 0 .322-.11.536-.218a.837.837 0 0 0 .216-.545c0-.218-.108-.325-.216-.542a.813.813 0 0 0-.536-.218h-9.645c-.214 0-.321.109-.535.218a.837.837 0 0 0-.215.542v16.097c0 .218.107.327.215.544a.81.81 0 0 0 .535.218h9.645v-.003zm-26.686-.327a.837.837 0 0 0 .214-.544V25.89l2.144-2.283 7.18 7.614c.108.109.323.218.537.218.214 0 .321-.11.536-.218a.837.837 0 0 0 .214-.545c0-.218-.108-.327-.214-.544l-7.181-7.72 6.966-7.288a.837.837 0 0 0 .215-.544c0-.218-.108-.326-.215-.543a.811.811 0 0 0-.537-.218c-.214 0-.322.11-.536.218l-9.11 9.787V14.58c0-.218-.108-.326-.214-.543a.813.813 0 0 0-.536-.218c-.214 0-.322.11-.536.218 0 .217-.108.326-.108.543v15.987c0 .219.108.328.214.544.108.11.322.219.536.219.108 0 .322-.11.43-.219h.001zm-20.364.328c.321 0 .535-.11.643-.437l1.5-3.696h8.789l1.5 3.696c.109.328.322.437.643.437.108 0 .215 0 .322-.11a.843.843 0 0 0 .428-.436c.108-.217.108-.326 0-.542l-1.714-4.134-4.93-11.963s0-.109-.107-.109v-.109h-.108c-.107-.11-.214-.11-.214-.11h-.428c-.109 0-.215 0-.215.11h-.107v.11s0 .108-.107.108l-4.93 11.963-1.715 4.132c-.108.218-.108.327 0 .546a.841.841 0 0 0 .428.433c.107.11.215.11.322.11zm2.68-5.548l3.858-9.354 3.86 9.354h-7.719zm-24.973-8.59l6.537 10.875v.109h1.287v-.11l6.538-10.876v13.487c0 .218.107.325.214.544.107.109.322.216.536.216.214 0 .321-.109.536-.218a.837.837 0 0 0 .214-.542V14.688c0-.327-.214-.652-.536-.652-.32-.109-.643 0-.857.326l-7.288 11.963-7.181-12.072c-.214-.327-.536-.435-.858-.327-.322.109-.536.327-.536.762v16.097c0 .218.108.325.214.542.108 0 .322.11.536.11.216 0 .322-.11.536-.219a.837.837 0 0 0 .216-.543V17.298h-.108v.002z"/>
        <path stroke="#291A41" stroke-width="2.2" d="M54.644 33.85V20.977c0-.913-.457-1.766-1.218-2.272l-15.514-10.3a1.364 1.364 0 0 0-2.118 1.137V33.85M61.925 33.85V20.977c0-.913.458-1.766 1.22-2.272l15.514-10.3a1.364 1.364 0 0 1 2.117 1.137V33.85"/>
        <rect width="3" height="4.091" x="34.295" y="31.818" fill="#291A41" fill-rule="nonzero" rx="1.1"/>
        <rect width="3" height="4.091" x="60.423" y="31.818" fill="#291A41" fill-rule="nonzero" rx="1.1"/>
        <rect width="3" height="4.091" x="79.268" y="31.818" fill="#291A41" fill-rule="nonzero" rx="1.1"/>
        <rect width="3" height="4.091" x="53.141" y="31.818" fill="#291A41" fill-rule="nonzero" rx="1.1"/>
    </g>
</svg>
