<?xml version="1.0"?>
<svg version="1.1" xmlns="http://www.w3.org/2000/svg" width="210" height="51" style=""><path fill="#ffffff" d="M32.3974609375,21.5009765625l5.34912109375,0l-8.49365234375,24.9853515625l-5.7763671875,0l-8.4765625-24.9853515625l5.34912109375,0l4.69970703125,14.8681640625q0.39306640625,1.31591796875,0.811767578125,3.067626953125t0.521240234375,2.435302734375q0.18798828125-1.572265625,1.28173828125-5.5029296875z M42.151831054687,44.04248046875q0-1.435546875,0.76904296875-2.17041015625t2.23876953125-0.73486328125q1.41845703125,0,2.196044921875,0.751953125t0.777587890625,2.1533203125q0,1.35009765625-0.7861328125,2.127685546875t-2.1875,0.777587890625q-1.435546875,0-2.2216796875-0.760498046875t-0.7861328125-2.144775390625z"/><path fill="#ffffff" d="M65.980908203125,33.2587890625l1.7431640625,0q2.44384765625,0,3.6572265625-0.965576171875t1.21337890625-2.811279296875q0-1.86279296875-1.016845703125-2.75146484375t-3.187255859375-0.888671875l-2.40966796875,0l0,7.4169921875z M77.943798828125,29.2939453125q0,4.033203125-2.520751953125,6.16943359375t-7.169189453125,2.13623046875l-2.27294921875,0l0,8.88671875l-5.2978515625,0l0-24.9853515625l7.98095703125,0q4.5458984375,0,6.912841796875,1.956787109375t2.366943359375,5.836181640625z M100.36174316406,46.486328125l-1.8115234375-5.947265625l-9.10888671875,0l-1.8115234375,5.947265625l-5.7080078125,0l8.818359375-25.087890625l6.47705078125,0l8.8525390625,25.087890625l-5.7080078125,0z M97.285571289062,36.095703125q-2.51220703125-8.08349609375-2.828369140625-9.14306640625t-0.452880859375-1.6748046875q-0.56396484375,2.1875-3.22998046875,10.81787109375l6.51123046875,0z M121.25869140625,46.486328125l-5.2978515625,0l0-20.576171875l-6.78466796875,0l0-4.4091796875l18.8671875,0l0,4.4091796875l-6.78466796875,0l0,20.576171875z M154.76794433594,46.486328125l-5.28076171875,0l0-10.78369140625l-9.89501953125,0l0,10.78369140625l-5.2978515625,0l0-24.9853515625l5.2978515625,0l0,9.79248046875l9.89501953125,0l0-9.79248046875l5.28076171875,0l0,24.9853515625z M178.77524414062,46.486328125l-1.8115234375-5.947265625l-9.10888671875,0l-1.8115234375,5.947265625l-5.7080078125,0l8.818359375-25.087890625l6.47705078125,0l8.8525390625,25.087890625l-5.7080078125,0z M175.69907226562,36.095703125q-2.51220703125-8.08349609375-2.828369140625-9.14306640625t-0.452880859375-1.6748046875q-0.56396484375,2.1875-3.22998046875,10.81787109375l6.51123046875,0z M210.13117675782,46.486328125l-6.015625,0l-6.54541015625-10.52734375l-2.23876953125,1.6064453125l0,8.9208984375l-5.2978515625,0l0-24.9853515625l5.2978515625,0l0,11.43310546875l2.0849609375-2.939453125l6.767578125-8.49365234375l5.87890625,0l-8.7158203125,11.05712890625z"/></svg>
