<?xml version="1.0"?>
<svg version="1.1" xmlns="http://www.w3.org/2000/svg" width="400" height="72" style=""><path fill="#0647c9" d="M24.41015625,50.390625l-4.125-13.44140625l-0.10546875,0q0.22265625,4.1015625,0.22265625,5.47265625l0,7.96875l-3.24609375,0l0-17.1328125l4.9453125,0l4.0546875,13.1015625l0.0703125,0l4.30078125-13.1015625l4.9453125,0l0,17.1328125l-3.38671875,0l0-8.109375q0-0.57421875,0.017578125-1.32421875t0.158203125-3.984375l-0.10546875,0l-4.41796875,13.41796875l-3.328125,0z M51.3019921875,50.390625l-9.8671875,0l0-17.1328125l9.8671875,0l0,2.9765625l-6.234375,0l0,3.76171875l5.80078125,0l0,2.9765625l-5.80078125,0l0,4.41796875l6.234375,0l0,3z M70.740703125,41.66015625q0,4.23046875-2.408203125,6.48046875t-6.955078125,2.25l-4.8515625,0l0-17.1328125l5.37890625,0q4.1953125,0,6.515625,2.21484375t2.3203125,6.1875z M66.967265625,41.75390625q0-5.51953125-4.875-5.51953125l-1.93359375,0l0,11.15625l1.55859375,0q5.25,0,5.25-5.63671875z M75.9411328125,50.390625l0-17.1328125l3.6328125,0l0,17.1328125l-3.6328125,0z M96.024375,50.390625l-1.2421875-4.078125l-6.24609375,0l-1.2421875,4.078125l-3.9140625,0l6.046875-17.203125l4.44140625,0l6.0703125,17.203125l-3.9140625,0z M93.915,43.265625q-1.72265625-5.54296875-1.939453125-6.26953125t-0.310546875-1.1484375q-0.38671875,1.5-2.21484375,7.41796875l4.46484375,0z M110.2482421875,40.76953125l6.796875,0l0,8.8828125q-1.65234375,0.5390625-3.111328125,0.755859375t-2.982421875,0.216796875q-3.87890625,0-5.923828125-2.279296875t-2.044921875-6.544921875q0-4.1484375,2.373046875-6.46875t6.580078125-2.3203125q2.63671875,0,5.0859375,1.0546875l-1.20703125,2.90625q-1.875-0.9375-3.90234375-0.9375q-2.35546875,0-3.7734375,1.58203125t-1.41796875,4.25390625q0,2.7890625,1.142578125,4.259765625t3.322265625,1.470703125q1.13671875,0,2.30859375-0.234375l0-3.57421875l-3.24609375,0l0-3.0234375z M136.718203125,33.2578125l0,11.0859375q0,1.8984375-0.849609375,3.328125t-2.455078125,2.19140625t-3.796875,0.76171875q-3.3046875,0-5.1328125-1.693359375t-1.828125-4.634765625l0-11.0390625l3.62109375,0l0,10.48828125q0,1.98046875,0.796875,2.90625t2.63671875,0.92578125q1.78125,0,2.583984375-0.931640625t0.802734375-2.923828125l0-10.46484375l3.62109375,0z M152.6764453125,45.6328125q0,2.3203125-1.669921875,3.65625t-4.646484375,1.3359375q-2.7421875,0-4.8515625-1.03125l0-3.375q1.734375,0.7734375,2.935546875,1.08984375t2.197265625,0.31640625q1.1953125,0,1.833984375-0.45703125t0.638671875-1.359375q0-0.50390625-0.28125-0.896484375t-0.826171875-0.755859375t-2.220703125-1.16015625q-1.5703125-0.73828125-2.35546875-1.41796875t-1.25390625-1.58203125t-0.46875-2.109375q0-2.2734375,1.541015625-3.57421875t4.259765625-1.30078125q1.3359375,0,2.548828125,0.31640625t2.537109375,0.890625l-1.171875,2.82421875q-1.37109375-0.5625-2.267578125-0.78515625t-1.763671875-0.22265625q-1.03125,0-1.58203125,0.48046875t-0.55078125,1.25390625q0,0.48046875,0.22265625,0.837890625t0.708984375,0.69140625t2.302734375,1.201171875q2.40234375,1.1484375,3.29296875,2.302734375t0.890625,2.830078125z M164.0409375,50.390625l-3.6328125,0l0-14.109375l-4.65234375,0l0-3.0234375l12.9375,0l0,3.0234375l-4.65234375,0l0,14.109375z"/><path fill="#" d=""/></svg>
